<?xml version="1.0" encoding="UTF-8" standalone="no"?>
<svg
   width="14"
   height="14"
   viewBox="0 0 7.0551243 7.0551246"
   version="1.1"
   xmlns="http://www.w3.org/2000/svg"
   xmlns:svg="http://www.w3.org/2000/svg">
	<g
	   id="save"
	   transform="translate(-110.78942,-141.04979)">
		<g
		   id="floppy"
		   transform="matrix(0.01377954,0,0,0.01377954,110.78942,141.04979)"
		   style="fill:#464646;fill-opacity:1">
			<path
			   d="M 493.254,77.255 434.746,18.745 C 422.742,6.742 406.465,0 389.49,0 H 352 v 112 c 0,8.836 -7.164,16 -16,16 H 80 c -8.836,0 -16,-7.164 -16,-16 V 0 H 32 C 14.328,0 0,14.326 0,32 v 448 c 0,17.673 14.328,32 32,32 h 448 c 17.672,0 32,-14.327 32,-32 V 122.51 c 0,-16.975 -6.742,-33.253 -18.746,-45.255 z M 448,448 H 64 V 256 h 384 z"
			   id="disk"
			   style="fill:#464646;fill-opacity:1" />
			<rect
			   x="224"
			   width="64"
			   height="96"
			   id="slider"
			   y="0"
			   style="fill:#464646;fill-opacity:1" />
		</g>
	</g>
</svg>