<?xml version="1.0" standalone="no"?>
<!DOCTYPE svg PUBLIC "-//W3C//DTD SVG 20010904//EN"
 "http://www.w3.org/TR/2001/REC-SVG-20010904/DTD/svg10.dtd">
<svg version="1.0" xmlns="http://www.w3.org/2000/svg"
 width="300.000000pt" height="240.000000pt" viewBox="0 0 300.000000 240.000000"
 preserveAspectRatio="xMidYMid meet">
	<g transform="translate(0.000000,240.000000) scale(0.050000,-0.050000)"
	fill="#000000" stroke="none">
		<path d="M2761 4649 c-206 -57 -418 -233 -459 -379 -27 -98 -176 -290 -225
		-290 -145 0 -358 -225 -450 -473 -115 -312 44 -994 279 -1201 86 -75 64 -135
		-81 -220 -375 -219 -453 -291 -625 -579 -34 -56 -123 -157 -198 -224 -135
		-120 -156 -153 -200 -317 -14 -50 -51 -110 -94 -150 -108 -101 -253 -416 -191
		-416 11 0 26 27 33 59 23 106 105 249 196 344 71 75 92 113 103 190 13 87 31
		113 164 246 136 133 217 238 337 431 66 105 89 127 258 237 302 197 324 207
		257 112 -58 -82 -165 -304 -165 -343 0 -60 283 -51 423 14 205 95 656 57 952
		-81 159 -74 398 -133 555 -137 l100 -2 26 120 c15 66 46 188 68 270 23 83 47
		178 54 212 14 72 131 181 184 172 89 -15 770 -308 816 -351 29 -26 84 -64 122
		-83 109 -54 260 -155 260 -173 0 -23 285 -299 296 -287 18 17 -55 106 -147
		182 -51 42 -101 96 -110 120 -9 24 -42 57 -73 73 -214 113 -303 168 -353 218
		-32 31 -68 57 -81 57 -14 0 -163 57 -333 128 -170 70 -326 133 -347 140 -35
		12 -33 19 26 80 147 151 243 695 155 867 -18 34 -38 114 -46 178 -12 105 -24
		128 -116 227 -56 60 -128 148 -159 195 -42 62 -78 90 -132 105 -113 30 -173
		87 -185 174 -9 70 -65 202 -136 326 -108 186 -495 303 -758 229z m491 -78 c81
		-38 160 -80 174 -95 64 -65 123 -170 166 -293 l46 -133 -73 -25 c-79 -28 -104
		-13 -105 65 -6 403 -693 611 -1030 313 l-60 -53 50 57 c193 222 553 293 832
		164z m-137 -101 c58 -17 116 -46 130 -63 14 -17 49 -55 78 -84 107 -107 144
		-300 70 -369 -88 -83 -98 -125 -102 -462 -4 -251 -12 -343 -40 -419 -26 -69
		-32 -122 -22 -190 7 -51 15 -109 17 -130 5 -46 -259 -212 -376 -237 -200 -41
		-207 -41 -294 2 -220 109 -342 455 -332 943 l5 291 81 -4 c170 -8 240 -49 239
		-138 -2 -112 -52 -275 -94 -306 -19 -15 -35 -39 -35 -54 0 -39 -73 -75 -121
		-60 -30 10 -39 3 -39 -30 0 -70 57 -159 111 -172 44 -11 113 -117 106 -164
		-21 -151 79 -307 158 -247 48 35 85 136 85 228 0 40 10 55 37 55 21 0 60 18
		88 40 28 22 56 40 63 40 6 0 52 29 102 64 127 90 114 125 -50 131 -72 3 -161
		10 -198 16 l-68 12 63 38 c42 26 63 54 62 84 l-2 45 -22 -46 c-15 -32 -34 -44
		-61 -37 -24 7 -57 -8 -87 -38 -89 -89 -214 9 -130 102 69 77 88 472 23 491
		-78 22 -239 20 -283 -4 -47 -25 -68 -12 -44 26 25 39 65 198 66 262 5 311 417
		505 816 384z m-867 -484 c-59 -185 -54 -815 9 -1044 69 -253 208 -434 371
		-482 32 -9 24 -20 -46 -66 -46 -31 -121 -89 -166 -130 -325 -294 -797 289
		-796 984 1 287 211 619 433 684 83 24 113 46 156 111 71 106 84 86 39 -57z
		m1441 -29 c30 -24 88 -54 128 -68 54 -18 96 -57 163 -152 49 -70 118 -152 153
		-182 50 -44 66 -78 78 -160 7 -58 27 -139 44 -181 95 -238 -3 -687 -191 -881
		-195 -201 -318 -233 -516 -134 -213 107 -258 172 -259 377 -1 96 -9 233 -18
		304 -13 105 -9 145 19 210 27 61 37 144 40 350 3 149 6 299 8 333 3 85 84 178
		177 203 109 29 114 28 174 -19z m-1120 -198 c35 -35 -4 -41 -82 -11 -42 16
		-95 34 -117 40 -22 6 10 6 70 0 61 -6 118 -19 129 -29z m-34 -598 c57 -48 57
		-69 -4 -109 -77 -50 -160 -42 -188 19 -27 61 -16 89 37 89 21 0 43 9 50 20 18
		30 55 23 105 -19z m444 -53 l110 -12 -69 -56 c-55 -45 -78 -52 -115 -38 -26
		10 -74 18 -107 18 -68 0 -158 52 -158 91 0 27 80 26 339 -3z m-328 -68 c16 0
		29 -10 29 -22 0 -12 -14 -17 -32 -10 -17 7 -44 12 -60 12 -23 0 -24 7 -3 41
		20 32 26 34 31 10 4 -17 20 -31 35 -31z m218 -63 c6 -6 -7 -27 -29 -47 -93
		-84 -406 -41 -351 48 11 19 362 18 380 -1z m-170 -155 c23 -43 -5 -149 -54
		-206 -44 -50 -128 52 -118 144 11 99 129 142 172 62z m651 -535 c132 -114 266
		-174 387 -175 l106 -1 -10 -60 c-5 -34 -28 -128 -51 -211 -22 -82 -46 -182
		-52 -222 -17 -116 -46 -140 -140 -117 -44 10 -147 33 -229 51 -81 17 -198 56
		-260 87 -122 61 -343 119 -476 126 -66 4 -83 12 -74 35 84 234 110 317 146
		468 50 210 38 193 146 206 98 13 203 61 324 149 l83 60 10 -164 c10 -161 11
		-164 90 -232z m-691 -17 c-21 -88 -63 -234 -93 -325 l-54 -165 -139 0 c-108 0
		-164 -12 -248 -52 -103 -48 -345 -75 -379 -41 -10 11 59 158 200 423 l64 120
		90 -44 c155 -76 177 -69 450 141 168 129 156 136 109 -57z"/>
		<path d="M2865 3801 c-145 -66 -104 -147 46 -90 67 26 120 31 209 22 141 -15
		144 -11 45 56 -90 61 -182 65 -300 12z m226 -11 c33 -26 34 -28 4 -18 -32 11
		-148 -10 -247 -44 -35 -13 -36 -11 -5 21 28 30 115 62 188 69 12 1 39 -12 60
		-28z"/>
		<path d="M2340 3670 c-38 -45 -10 -86 69 -101 82 -16 127 -3 144 42 27 71
		-159 124 -213 59z m148 -13 c66 -30 47 -57 -38 -57 -69 0 -102 24 -80 60 16
		26 56 25 118 -3z"/>
		<path d="M2885 3665 c-80 -40 -81 -56 -6 -94 71 -37 184 -40 217 -7 86 86 -80
		166 -211 101z m175 -35 c35 -42 13 -58 -73 -56 -85 3 -132 38 -87 67 46 28
		132 23 160 -11z"/>
	</g>
</svg>
